<?xml version="1.0"?>
<svg xmlns="http://www.w3.org/2000/svg" xmlns:xlink="http://www.w3.org/1999/xlink" xmlns:svgjs="http://svgjs.com/svgjs" version="1.1" x="0" y="0" viewBox="0 0 512 512" style="enable-background:new 0 0 512 512" xml:space="preserve" class=""><g><g xmlns="http://www.w3.org/2000/svg"><path d="m1 340v15c0 24.813 20.187 45 45 45h420c24.813 0 45-20.187 45-45v-15z" fill="#cf1c1c" data-original="#000000" style="" class=""/><path d="m356 452h-17.32l-8.744-22h-147.872l-8.743 22h-17.321c-24.853 0-45 20.147-45 45 0 8.284 6.716 15 15 15h260c8.284 0 15-6.716 15-15 0-24.853-20.147-45-45-45z" fill="#cf1c1c" data-original="#000000" style="" class=""/><g><path d="m269.483 78.333c-2.609-5.218-7.649-8.333-13.483-8.333s-10.874 3.115-13.482 8.333l-69.927 139.851c-3.392 6.785-.668 12.517.66 14.667 1.329 2.149 5.238 7.149 12.824 7.149h139.85c7.586 0 11.495-5 12.824-7.149 1.328-2.15 4.052-7.882.66-14.667zm-13.483 141.667c-5.523 0-10-4.477-10-10s4.477-10 10-10 10 4.477 10 10-4.477 10-10 10zm10.094-50.714c0 5.522-4.478 10-10 10s-10-4.478-10-10v-64.286c0-5.522 4.478-10 10-10s10 4.478 10 10z" fill="#cf1c1c" data-original="#000000" style="" class=""/><path d="m466 0h-420c-24.813 0-45 20.187-45 45v265h510v-265c0-24.813-20.187-45-45-45zm-101.731 248.622c-8.274 13.386-22.608 21.378-38.344 21.378h-139.85c-15.736 0-30.07-7.992-38.344-21.378-8.272-13.386-9.011-29.78-1.973-43.854l69.926-139.851c7.684-15.369 23.132-24.917 40.316-24.917s32.632 9.548 40.316 24.917l69.925 139.851c7.038 14.074 6.3 30.468-1.972 43.854z" fill="#cf1c1c" data-original="#000000" style="" class=""/></g></g></g></svg>
