<?xml version="1.0" encoding="iso-8859-1"?>
<!-- Generator: Adobe Illustrator 16.0.0, SVG Export Plug-In . SVG Version: 6.00 Build 0)  -->
<!DOCTYPE svg PUBLIC "-//W3C//DTD SVG 1.1//EN" "http://www.w3.org/Graphics/SVG/1.1/DTD/svg11.dtd">
<svg version="1.1" id="Capa_1" xmlns="http://www.w3.org/2000/svg" xmlns:xlink="http://www.w3.org/1999/xlink" x="0px" y="0px"
	 width="482.082px" height="482.082px" viewBox="0 0 482.082 482.082" style="enable-background:new 0 0 482.082 482.082;"
	 xml:space="preserve">
<g>
	<path d="M253.631,350.957h-43.397v-45.383h43.397V350.957z M210.228,482.082h43.397v-45.395h-43.397V482.082z M325.299,372.98
		H210.627v45.396h114.678V372.98H325.299z M468.635,372.98H353.972v45.396h114.675V372.98H468.635z M282.292,482.082h114.681
		v-45.395H282.292V482.082z M425.64,482.082h44.201v-45.395H425.64V482.082z M396.973,305.574H282.292v45.383h114.681V305.574z
		 M425.64,305.574v45.383h44.201v-45.383H425.64z M252.454,160.764c14.269,0,19.979,25.694,31.398,31.401
		c8.57,2.857,25.688-14.283,51.376,7.137c25.7,21.415,26.646-3.806,32.361-29.494c2.855-25.694-26.646-23.315-26.646-37.587
		c-5.704-42.812,14.28-45.667-22.833-82.783c-0.852-0.839-1.809-1.717-2.755-2.583c57.53,32.273,96.523,93.839,96.523,164.375
		c0,11.343-1.07,22.431-3.003,33.228c-30.688,16.089-84.287-2.781-92.822,39.637h84.902h20.734
		c2.341-6.348,4.422-12.826,6.159-19.446l3.688-17.188c2.045-11.783,3.168-23.876,3.168-36.23C434.707,94.75,339.945,0,223.477,0
		C107,0,12.241,94.75,12.241,211.23c0,103.542,74.88,189.839,173.31,207.772v-3.795h0.393v-31.256h-0.393v-91.061
		c-1.578-0.556-3.228-1.018-5.03-1.266c-20.948-2.902-37.793,16.048-43.56,34.247c-5.544,17.496,0.653,37.438,5.054,55.219
		c-26.734-12.851-49.946-31.895-67.882-55.183c15.72,7.14,31.451,5.976,33.023-15.061c1.894-25.435-41.473-48.61-43.004-74.237
		c1.865-5.116,3.209-11.526,4.049-18.48c7.979-16.477,23.758-27.659,12.572-52.372c-4.655-11.354-19.095-17.535-33.313-21.616
		c15.403-40.267,44.233-73.92,80.995-95.485c59.099,42.877,4.953,142.612,61.194,172.065
		C238.177,243.547,212.492,163.616,252.454,160.764z"/>
</g>
<g>
</g>
<g>
</g>
<g>
</g>
<g>
</g>
<g>
</g>
<g>
</g>
<g>
</g>
<g>
</g>
<g>
</g>
<g>
</g>
<g>
</g>
<g>
</g>
<g>
</g>
<g>
</g>
<g>
</g>
</svg>
